<svg width="1170" height="327" viewBox="0 0 1170 327" fill="none" xmlns="http://www.w3.org/2000/svg">
<rect width="20" height="40" rx="4" fill="#DB4444"/>
<path d="M36.56 20.4C36.56 19.3013 36.8053 18.32 37.296 17.456C37.7973 16.5813 38.4747 15.904 39.328 15.424C40.192 14.9333 41.1573 14.688 42.224 14.688C43.472 14.688 44.5653 15.008 45.504 15.648C46.4427 16.288 47.0987 17.1733 47.472 18.304H44.896C44.64 17.7707 44.2773 17.3707 43.808 17.104C43.3493 16.8373 42.816 16.704 42.208 16.704C41.5573 16.704 40.976 16.8587 40.464 17.168C39.9627 17.4667 39.568 17.8933 39.28 18.448C39.0027 19.0027 38.864 19.6533 38.864 20.4C38.864 21.136 39.0027 21.7867 39.28 22.352C39.568 22.9067 39.9627 23.3387 40.464 23.648C40.976 23.9467 41.5573 24.096 42.208 24.096C42.816 24.096 43.3493 23.9627 43.808 23.696C44.2773 23.4187 44.64 23.0133 44.896 22.48H47.472C47.0987 23.6213 46.4427 24.512 45.504 25.152C44.576 25.7813 43.4827 26.096 42.224 26.096C41.1573 26.096 40.192 25.856 39.328 25.376C38.4747 24.8853 37.7973 24.208 37.296 23.344C36.8053 22.48 36.56 21.4987 36.56 20.4ZM48.8092 21.536C48.8092 20.64 48.9852 19.8453 49.3372 19.152C49.6999 18.4587 50.1853 17.9253 50.7933 17.552C51.4119 17.1787 52.0999 16.992 52.8573 16.992C53.5186 16.992 54.0946 17.1253 54.5853 17.392C55.0866 17.6587 55.4866 17.9947 55.7853 18.4V17.136H58.0413V26H55.7853V24.704C55.4973 25.12 55.0973 25.4667 54.5853 25.744C54.0839 26.0107 53.5026 26.144 52.8413 26.144C52.0946 26.144 51.4119 25.952 50.7933 25.568C50.1853 25.184 49.6999 24.6453 49.3372 23.952C48.9852 23.248 48.8092 22.4427 48.8092 21.536ZM55.7853 21.568C55.7853 21.024 55.6786 20.56 55.4653 20.176C55.2519 19.7813 54.9639 19.4827 54.6013 19.28C54.2386 19.0667 53.8493 18.96 53.4333 18.96C53.0173 18.96 52.6333 19.0613 52.2812 19.264C51.9293 19.4667 51.6413 19.7653 51.4173 20.16C51.2039 20.544 51.0973 21.0027 51.0973 21.536C51.0973 22.0693 51.2039 22.5387 51.4173 22.944C51.6413 23.3387 51.9293 23.6427 52.2812 23.856C52.6439 24.0693 53.0279 24.176 53.4333 24.176C53.8493 24.176 54.2386 24.0747 54.6013 23.872C54.9639 23.6587 55.2519 23.36 55.4653 22.976C55.6786 22.5813 55.7853 22.112 55.7853 21.568ZM62.837 18.976V23.264C62.837 23.5627 62.9063 23.7813 63.045 23.92C63.1943 24.048 63.4397 24.112 63.781 24.112H64.821V26H63.413C61.525 26 60.581 25.0827 60.581 23.248V18.976H59.525V17.136H60.581V14.944H62.837V17.136H64.821V18.976H62.837ZM74.6721 21.376C74.6721 21.696 74.6508 21.984 74.6081 22.24H68.1281C68.1815 22.88 68.4055 23.3813 68.8001 23.744C69.1948 24.1067 69.6801 24.288 70.2561 24.288C71.0881 24.288 71.6801 23.9307 72.0321 23.216H74.4481C74.1921 24.0693 73.7015 24.7733 72.9761 25.328C72.2508 25.872 71.3601 26.144 70.3041 26.144C69.4508 26.144 68.6828 25.9573 68.0001 25.584C67.3281 25.2 66.8001 24.6613 66.4161 23.968C66.0428 23.2747 65.8561 22.4747 65.8561 21.568C65.8561 20.6507 66.0428 19.8453 66.4161 19.152C66.7895 18.4587 67.3121 17.9253 67.9841 17.552C68.6561 17.1787 69.4295 16.992 70.3041 16.992C71.1468 16.992 71.8988 17.1733 72.5601 17.536C73.2321 17.8987 73.7495 18.416 74.1121 19.088C74.4855 19.7493 74.6721 20.512 74.6721 21.376ZM72.3521 20.736C72.3415 20.16 72.1335 19.7013 71.7281 19.36C71.3228 19.008 70.8268 18.832 70.2401 18.832C69.6855 18.832 69.2161 19.0027 68.8321 19.344C68.4588 19.6747 68.2295 20.1387 68.1441 20.736H72.3521ZM79.7791 16.992C80.4405 16.992 81.0218 17.1253 81.5231 17.392C82.0245 17.648 82.4191 17.984 82.7071 18.4V17.136H84.9631V26.064C84.9631 26.8853 84.7978 27.616 84.4671 28.256C84.1365 28.9067 83.6405 29.4187 82.9791 29.792C82.3178 30.176 81.5178 30.368 80.5791 30.368C79.3205 30.368 78.2858 30.0747 77.4751 29.488C76.6751 28.9013 76.2218 28.1013 76.1151 27.088H78.3391C78.4565 27.4933 78.7071 27.8133 79.0911 28.048C79.4858 28.2933 79.9605 28.416 80.5151 28.416C81.1658 28.416 81.6938 28.2187 82.0991 27.824C82.5045 27.44 82.7071 26.8533 82.7071 26.064V24.688C82.4191 25.104 82.0191 25.4507 81.5071 25.728C81.0058 26.0053 80.4298 26.144 79.7791 26.144C79.0325 26.144 78.3498 25.952 77.7311 25.568C77.1125 25.184 76.6218 24.6453 76.2591 23.952C75.9071 23.248 75.7311 22.4427 75.7311 21.536C75.7311 20.64 75.9071 19.8453 76.2591 19.152C76.6218 18.4587 77.1071 17.9253 77.7151 17.552C78.3338 17.1787 79.0218 16.992 79.7791 16.992ZM82.7071 21.568C82.7071 21.024 82.6005 20.56 82.3871 20.176C82.1738 19.7813 81.8858 19.4827 81.5231 19.28C81.1605 19.0667 80.7711 18.96 80.3551 18.96C79.9391 18.96 79.5551 19.0613 79.2031 19.264C78.8511 19.4667 78.5631 19.7653 78.3391 20.16C78.1258 20.544 78.0191 21.0027 78.0191 21.536C78.0191 22.0693 78.1258 22.5387 78.3391 22.944C78.5631 23.3387 78.8511 23.6427 79.2031 23.856C79.5658 24.0693 79.9498 24.176 80.3551 24.176C80.7711 24.176 81.1605 24.0747 81.5231 23.872C81.8858 23.6587 82.1738 23.36 82.3871 22.976C82.6005 22.5813 82.7071 22.112 82.7071 21.568ZM91.0869 26.144C90.2335 26.144 89.4655 25.9573 88.7829 25.584C88.1002 25.2 87.5615 24.6613 87.1669 23.968C86.7829 23.2747 86.5909 22.4747 86.5909 21.568C86.5909 20.6613 86.7882 19.8613 87.1829 19.168C87.5882 18.4747 88.1375 17.9413 88.8309 17.568C89.5242 17.184 90.2975 16.992 91.1509 16.992C92.0042 16.992 92.7775 17.184 93.4709 17.568C94.1642 17.9413 94.7082 18.4747 95.1029 19.168C95.5082 19.8613 95.7109 20.6613 95.7109 21.568C95.7109 22.4747 95.5029 23.2747 95.0869 23.968C94.6815 24.6613 94.1269 25.2 93.4229 25.584C92.7295 25.9573 91.9509 26.144 91.0869 26.144ZM91.0869 24.192C91.4922 24.192 91.8709 24.096 92.2229 23.904C92.5855 23.7013 92.8735 23.4027 93.0869 23.008C93.3002 22.6133 93.4069 22.1333 93.4069 21.568C93.4069 20.7253 93.1829 20.08 92.7349 19.632C92.2975 19.1733 91.7589 18.944 91.1189 18.944C90.4789 18.944 89.9402 19.1733 89.5029 19.632C89.0762 20.08 88.8629 20.7253 88.8629 21.568C88.8629 22.4107 89.0709 23.0613 89.4869 23.52C89.9135 23.968 90.4469 24.192 91.0869 24.192ZM99.594 18.512C99.882 18.0427 100.255 17.6747 100.714 17.408C101.183 17.1413 101.717 17.008 102.314 17.008V19.36H101.722C101.018 19.36 100.485 19.5253 100.122 19.856C99.77 20.1867 99.594 20.7627 99.594 21.584V26H97.354V17.136H99.594V18.512ZM104.959 16.08C104.564 16.08 104.233 15.9573 103.967 15.712C103.711 15.456 103.583 15.1413 103.583 14.768C103.583 14.3947 103.711 14.0853 103.967 13.84C104.233 13.584 104.564 13.456 104.959 13.456C105.353 13.456 105.679 13.584 105.935 13.84C106.201 14.0853 106.335 14.3947 106.335 14.768C106.335 15.1413 106.201 15.456 105.935 15.712C105.679 15.9573 105.353 16.08 104.959 16.08ZM106.063 17.136V26H103.823V17.136H106.063ZM116.516 21.376C116.516 21.696 116.495 21.984 116.452 22.24H109.972C110.025 22.88 110.249 23.3813 110.644 23.744C111.039 24.1067 111.524 24.288 112.1 24.288C112.932 24.288 113.524 23.9307 113.876 23.216H116.292C116.036 24.0693 115.545 24.7733 114.82 25.328C114.095 25.872 113.204 26.144 112.148 26.144C111.295 26.144 110.527 25.9573 109.844 25.584C109.172 25.2 108.644 24.6613 108.26 23.968C107.887 23.2747 107.7 22.4747 107.7 21.568C107.7 20.6507 107.887 19.8453 108.26 19.152C108.633 18.4587 109.156 17.9253 109.828 17.552C110.5 17.1787 111.273 16.992 112.148 16.992C112.991 16.992 113.743 17.1733 114.404 17.536C115.076 17.8987 115.593 18.416 115.956 19.088C116.329 19.7493 116.516 20.512 116.516 21.376ZM114.196 20.736C114.185 20.16 113.977 19.7013 113.572 19.36C113.167 19.008 112.671 18.832 112.084 18.832C111.529 18.832 111.06 19.0027 110.676 19.344C110.303 19.6747 110.073 20.1387 109.988 20.736H114.196ZM121.543 26.144C120.818 26.144 120.167 26.016 119.591 25.76C119.015 25.4933 118.556 25.136 118.215 24.688C117.884 24.24 117.703 23.744 117.671 23.2H119.927C119.97 23.5413 120.135 23.824 120.423 24.048C120.722 24.272 121.09 24.384 121.527 24.384C121.954 24.384 122.284 24.2987 122.519 24.128C122.764 23.9573 122.887 23.7387 122.887 23.472C122.887 23.184 122.738 22.9707 122.439 22.832C122.151 22.6827 121.687 22.5227 121.047 22.352C120.386 22.192 119.842 22.0267 119.415 21.856C118.999 21.6853 118.636 21.424 118.327 21.072C118.028 20.72 117.879 20.2453 117.879 19.648C117.879 19.1573 118.018 18.7093 118.295 18.304C118.583 17.8987 118.988 17.5787 119.511 17.344C120.044 17.1093 120.668 16.992 121.383 16.992C122.439 16.992 123.282 17.2587 123.911 17.792C124.54 18.3147 124.887 19.024 124.951 19.92H122.807C122.775 19.568 122.626 19.2907 122.359 19.088C122.103 18.8747 121.756 18.768 121.319 18.768C120.914 18.768 120.599 18.8427 120.375 18.992C120.162 19.1413 120.055 19.3493 120.055 19.616C120.055 19.9147 120.204 20.144 120.503 20.304C120.802 20.4533 121.266 20.608 121.895 20.768C122.535 20.928 123.063 21.0933 123.479 21.264C123.895 21.4347 124.252 21.7013 124.551 22.064C124.86 22.416 125.02 22.8853 125.031 23.472C125.031 23.984 124.887 24.4427 124.599 24.848C124.322 25.2533 123.916 25.5733 123.383 25.808C122.86 26.032 122.247 26.144 121.543 26.144Z" fill="#DB4444"/>
<path d="M2.58239 97V70.8182H12.6051C14.4972 70.8182 16.0696 71.1165 17.3224 71.7131C18.5838 72.3011 19.5256 73.1065 20.1477 74.1293C20.7784 75.152 21.0938 76.3111 21.0938 77.6065C21.0938 78.6719 20.8892 79.5838 20.4801 80.3423C20.071 81.0923 19.5213 81.7017 18.831 82.1705C18.1406 82.6392 17.3693 82.9759 16.517 83.1804V83.4361C17.446 83.4872 18.3366 83.7727 19.1889 84.2926C20.0497 84.804 20.7528 85.5284 21.2983 86.4659C21.8438 87.4034 22.1165 88.5369 22.1165 89.8665C22.1165 91.2216 21.7884 92.4403 21.1321 93.5227C20.4759 94.5966 19.4872 95.4446 18.1662 96.0668C16.8452 96.6889 15.1832 97 13.1804 97H2.58239ZM7.32528 93.0369H12.4261C14.1477 93.0369 15.3878 92.7088 16.1463 92.0526C16.9134 91.3878 17.2969 90.5355 17.2969 89.4957C17.2969 88.7202 17.1051 88.0213 16.7216 87.3991C16.3381 86.7685 15.7926 86.2741 15.0852 85.9162C14.3778 85.5497 13.5341 85.3665 12.554 85.3665H7.32528V93.0369ZM7.32528 81.9531H12.017C12.8352 81.9531 13.5724 81.804 14.2287 81.5057C14.8849 81.1989 15.4006 80.7685 15.7756 80.2145C16.1591 79.652 16.3509 78.9872 16.3509 78.2202C16.3509 77.206 15.9929 76.3707 15.277 75.7145C14.5696 75.0582 13.517 74.7301 12.1193 74.7301H7.32528V81.9531ZM27.478 97V77.3636H31.9652V80.6364H32.1698C32.5277 79.5028 33.1414 78.6293 34.0107 78.0156C34.8885 77.3935 35.8899 77.0824 37.0149 77.0824C37.2706 77.0824 37.5561 77.0952 37.8715 77.1207C38.1953 77.1378 38.4638 77.1676 38.6769 77.2102V81.4673C38.4808 81.3991 38.1698 81.3395 37.7436 81.2884C37.326 81.2287 36.9212 81.1989 36.5291 81.1989C35.6854 81.1989 34.9269 81.3821 34.2536 81.7486C33.5888 82.1065 33.0646 82.6051 32.6811 83.2443C32.2976 83.8835 32.1058 84.6207 32.1058 85.456V97H27.478ZM50.9482 97.3835C49.0306 97.3835 47.3686 96.9616 45.9624 96.1179C44.5561 95.2741 43.4652 94.0937 42.6897 92.5767C41.9226 91.0597 41.5391 89.2869 41.5391 87.2585C41.5391 85.2301 41.9226 83.4531 42.6897 81.9276C43.4652 80.402 44.5561 79.2173 45.9624 78.3736C47.3686 77.5298 49.0306 77.108 50.9482 77.108C52.8658 77.108 54.5277 77.5298 55.934 78.3736C57.3402 79.2173 58.4269 80.402 59.1939 81.9276C59.9695 83.4531 60.3573 85.2301 60.3573 87.2585C60.3573 89.2869 59.9695 91.0597 59.1939 92.5767C58.4269 94.0937 57.3402 95.2741 55.934 96.1179C54.5277 96.9616 52.8658 97.3835 50.9482 97.3835ZM50.9738 93.6761C52.0135 93.6761 52.8828 93.3906 53.5817 92.8196C54.2806 92.2401 54.8005 91.4645 55.1414 90.4929C55.4908 89.5213 55.6655 88.4389 55.6655 87.2457C55.6655 86.044 55.4908 84.9574 55.1414 83.9858C54.8005 83.0057 54.2806 82.2259 53.5817 81.6463C52.8828 81.0668 52.0135 80.777 50.9738 80.777C49.9084 80.777 49.022 81.0668 48.3147 81.6463C47.6158 82.2259 47.0916 83.0057 46.7422 83.9858C46.4013 84.9574 46.2309 86.044 46.2309 87.2457C46.2309 88.4389 46.4013 89.5213 46.7422 90.4929C47.0916 91.4645 47.6158 92.2401 48.3147 92.8196C49.022 93.3906 49.9084 93.6761 50.9738 93.6761ZM69.2152 97L63.6669 77.3636H68.3843L71.836 91.1705H72.015L75.5434 77.3636H80.2096L83.738 91.0938H83.9297L87.3303 77.3636H92.0604L86.4993 97H81.6797L77.9979 83.7301H77.7294L74.0476 97H69.2152ZM112.251 82.554L108.033 83.0142C107.913 82.5881 107.705 82.1875 107.406 81.8125C107.117 81.4375 106.724 81.1349 106.23 80.9048C105.736 80.6747 105.131 80.5597 104.415 80.5597C103.452 80.5597 102.642 80.7685 101.986 81.1861C101.338 81.6037 101.019 82.1449 101.027 82.8097C101.019 83.3807 101.227 83.8452 101.653 84.2031C102.088 84.5611 102.804 84.8551 103.801 85.0852L107.151 85.8011C109.009 86.2017 110.389 86.8366 111.293 87.706C112.205 88.5753 112.665 89.7131 112.673 91.1193C112.665 92.3551 112.303 93.446 111.587 94.392C110.879 95.3295 109.895 96.0625 108.634 96.5909C107.372 97.1193 105.923 97.3835 104.287 97.3835C101.884 97.3835 99.9489 96.8807 98.483 95.875C97.0171 94.8608 96.1435 93.4503 95.8623 91.6435L100.375 91.2088C100.58 92.0952 101.014 92.7642 101.679 93.2159C102.344 93.6676 103.209 93.8935 104.274 93.8935C105.374 93.8935 106.256 93.6676 106.921 93.2159C107.594 92.7642 107.93 92.206 107.93 91.5412C107.93 90.9787 107.713 90.5142 107.278 90.1477C106.852 89.7812 106.188 89.5 105.284 89.304L101.935 88.6009C100.051 88.2088 98.6577 87.5483 97.7543 86.6193C96.8509 85.6818 96.4035 84.4972 96.412 83.0653C96.4035 81.8551 96.7316 80.8068 97.3964 79.9205C98.0697 79.0256 99.0029 78.3352 100.196 77.8494C101.398 77.3551 102.783 77.108 104.351 77.108C106.652 77.108 108.463 77.598 109.784 78.5781C111.114 79.5582 111.936 80.8835 112.251 82.554ZM126.623 97.3835C124.654 97.3835 122.954 96.9744 121.522 96.1562C120.098 95.3295 119.003 94.1619 118.236 92.6534C117.469 91.1364 117.086 89.3509 117.086 87.2969C117.086 85.277 117.469 83.5043 118.236 81.9787C119.012 80.4446 120.094 79.2514 121.483 78.3991C122.873 77.5384 124.505 77.108 126.38 77.108C127.59 77.108 128.732 77.304 129.806 77.696C130.888 78.0795 131.843 78.6761 132.669 79.4858C133.505 80.2955 134.161 81.3267 134.638 82.5795C135.115 83.8239 135.354 85.3068 135.354 87.0284V88.4474H119.259V85.3281H130.918C130.91 84.4418 130.718 83.6534 130.343 82.9631C129.968 82.2642 129.444 81.7145 128.77 81.3139C128.106 80.9134 127.33 80.7131 126.444 80.7131C125.498 80.7131 124.667 80.9432 123.951 81.4034C123.235 81.8551 122.677 82.4517 122.276 83.1932C121.884 83.9261 121.684 84.7315 121.675 85.6094V88.3324C121.675 89.4744 121.884 90.4545 122.302 91.2727C122.719 92.0824 123.303 92.7045 124.053 93.1392C124.803 93.5653 125.681 93.7784 126.687 93.7784C127.36 93.7784 127.969 93.6847 128.515 93.4972C129.06 93.3011 129.533 93.0156 129.934 92.6406C130.334 92.2656 130.637 91.8011 130.841 91.2472L135.162 91.733C134.89 92.875 134.37 93.8722 133.603 94.7244C132.844 95.5682 131.873 96.2244 130.688 96.6932C129.503 97.1534 128.148 97.3835 126.623 97.3835ZM151.283 97V70.8182H161.306C163.198 70.8182 164.771 71.1165 166.024 71.7131C167.285 72.3011 168.227 73.1065 168.849 74.1293C169.48 75.152 169.795 76.3111 169.795 77.6065C169.795 78.6719 169.59 79.5838 169.181 80.3423C168.772 81.0923 168.222 81.7017 167.532 82.1705C166.842 82.6392 166.07 82.9759 165.218 83.1804V83.4361C166.147 83.4872 167.038 83.7727 167.89 84.2926C168.751 84.804 169.454 85.5284 169.999 86.4659C170.545 87.4034 170.818 88.5369 170.818 89.8665C170.818 91.2216 170.489 92.4403 169.833 93.5227C169.177 94.5966 168.188 95.4446 166.867 96.0668C165.546 96.6889 163.884 97 161.881 97H151.283ZM156.026 93.0369H161.127C162.849 93.0369 164.089 92.7088 164.847 92.0526C165.614 91.3878 165.998 90.5355 165.998 89.4957C165.998 88.7202 165.806 88.0213 165.423 87.3991C165.039 86.7685 164.494 86.2741 163.786 85.9162C163.079 85.5497 162.235 85.3665 161.255 85.3665H156.026V93.0369ZM156.026 81.9531H160.718C161.536 81.9531 162.274 81.804 162.93 81.5057C163.586 81.1989 164.102 80.7685 164.477 80.2145C164.86 79.652 165.052 78.9872 165.052 78.2202C165.052 77.206 164.694 76.3707 163.978 75.7145C163.271 75.0582 162.218 74.7301 160.82 74.7301H156.026V81.9531ZM179.056 104.364C178.425 104.364 177.841 104.313 177.304 104.21C176.776 104.116 176.354 104.006 176.038 103.878L177.112 100.273C177.786 100.469 178.386 100.563 178.915 100.554C179.443 100.545 179.908 100.379 180.308 100.055C180.717 99.7401 181.063 99.2116 181.344 98.4702L181.74 97.4091L174.619 77.3636H179.529L184.054 92.1932H184.259L188.797 77.3636H193.719L185.857 99.3778C185.49 100.418 185.004 101.308 184.399 102.05C183.794 102.8 183.053 103.371 182.175 103.763C181.306 104.163 180.266 104.364 179.056 104.364ZM231.346 79.652H226.565C226.428 78.8679 226.177 78.1733 225.811 77.5682C225.444 76.9545 224.988 76.4347 224.443 76.0085C223.897 75.5824 223.275 75.2628 222.576 75.0497C221.886 74.8281 221.14 74.7173 220.339 74.7173C218.916 74.7173 217.654 75.0753 216.555 75.7912C215.455 76.4986 214.595 77.5384 213.972 78.9105C213.35 80.2741 213.039 81.9403 213.039 83.9091C213.039 85.9119 213.35 87.5994 213.972 88.9716C214.603 90.3352 215.464 91.3665 216.555 92.0653C217.654 92.7557 218.911 93.1009 220.326 93.1009C221.11 93.1009 221.843 92.9986 222.525 92.794C223.215 92.581 223.833 92.2699 224.379 91.8608C224.933 91.4517 225.397 90.9489 225.772 90.3523C226.156 89.7557 226.42 89.0739 226.565 88.3068L231.346 88.3324C231.167 89.5767 230.779 90.7443 230.183 91.8352C229.595 92.9261 228.823 93.8892 227.869 94.7244C226.914 95.5511 225.798 96.1989 224.519 96.6676C223.241 97.1278 221.822 97.358 220.262 97.358C217.961 97.358 215.907 96.8253 214.1 95.7599C212.293 94.6946 210.87 93.1562 209.83 91.1449C208.791 89.1335 208.271 86.7216 208.271 83.9091C208.271 81.0881 208.795 78.6761 209.843 76.6733C210.891 74.6619 212.319 73.1236 214.126 72.0582C215.933 70.9929 217.978 70.4602 220.262 70.4602C221.72 70.4602 223.075 70.6648 224.328 71.0739C225.58 71.483 226.697 72.0838 227.677 72.8764C228.657 73.6605 229.462 74.6236 230.093 75.7656C230.732 76.8991 231.15 78.1946 231.346 79.652ZM242.575 97.3963C241.331 97.3963 240.21 97.1747 239.213 96.7315C238.225 96.2798 237.44 95.6151 236.861 94.7372C236.29 93.8594 236.004 92.777 236.004 91.4901C236.004 90.3821 236.209 89.4659 236.618 88.7415C237.027 88.017 237.585 87.4375 238.293 87.0028C239 86.5682 239.797 86.2401 240.683 86.0185C241.578 85.7884 242.503 85.6222 243.458 85.5199C244.608 85.4006 245.541 85.294 246.257 85.2003C246.973 85.098 247.493 84.9446 247.817 84.7401C248.149 84.527 248.315 84.1989 248.315 83.7557V83.679C248.315 82.7159 248.03 81.9702 247.459 81.4418C246.888 80.9134 246.065 80.6491 244.992 80.6491C243.858 80.6491 242.959 80.8963 242.294 81.3906C241.638 81.8849 241.195 82.4687 240.965 83.142L236.644 82.5284C236.985 81.3352 237.547 80.3381 238.331 79.5369C239.115 78.7273 240.074 78.1222 241.208 77.7216C242.341 77.3125 243.594 77.108 244.966 77.108C245.912 77.108 246.854 77.2188 247.791 77.4403C248.729 77.6619 249.585 78.0284 250.361 78.5398C251.137 79.0426 251.759 79.7287 252.227 80.598C252.705 81.4673 252.943 82.554 252.943 83.858V97H248.494V94.3026H248.341C248.06 94.848 247.664 95.3594 247.152 95.8366C246.649 96.3054 246.014 96.6847 245.247 96.9744C244.489 97.2557 243.598 97.3963 242.575 97.3963ZM243.777 93.9957C244.706 93.9957 245.512 93.8125 246.193 93.446C246.875 93.071 247.399 92.5767 247.766 91.9631C248.141 91.3494 248.328 90.6804 248.328 89.956V87.642C248.183 87.7614 247.936 87.8722 247.587 87.9744C247.246 88.0767 246.862 88.1662 246.436 88.2429C246.01 88.3196 245.588 88.3878 245.171 88.4474C244.753 88.5071 244.391 88.5582 244.084 88.6009C243.394 88.6946 242.776 88.848 242.23 89.0611C241.685 89.2741 241.254 89.5724 240.939 89.956C240.624 90.331 240.466 90.8168 240.466 91.4134C240.466 92.2656 240.777 92.9091 241.399 93.3438C242.021 93.7784 242.814 93.9957 243.777 93.9957ZM268.842 77.3636V80.9432H257.554V77.3636H268.842ZM260.341 72.6591H264.969V91.0938C264.969 91.7159 265.062 92.1932 265.25 92.5256C265.446 92.8494 265.702 93.071 266.017 93.1903C266.332 93.3097 266.682 93.3693 267.065 93.3693C267.355 93.3693 267.619 93.348 267.858 93.3054C268.105 93.2628 268.292 93.2244 268.42 93.1903L269.2 96.8082C268.953 96.8935 268.599 96.9872 268.139 97.0895C267.687 97.1918 267.133 97.2514 266.477 97.2685C265.318 97.3026 264.274 97.1278 263.345 96.7443C262.416 96.3523 261.679 95.7472 261.133 94.929C260.596 94.1108 260.332 93.0881 260.341 91.8608V72.6591ZM282.635 97.3835C280.666 97.3835 278.966 96.9744 277.534 96.1562C276.111 95.3295 275.015 94.1619 274.248 92.6534C273.481 91.1364 273.098 89.3509 273.098 87.2969C273.098 85.277 273.481 83.5043 274.248 81.9787C275.024 80.4446 276.106 79.2514 277.496 78.3991C278.885 77.5384 280.517 77.108 282.392 77.108C283.602 77.108 284.744 77.304 285.818 77.696C286.9 78.0795 287.855 78.6761 288.682 79.4858C289.517 80.2955 290.173 81.3267 290.65 82.5795C291.128 83.8239 291.366 85.3068 291.366 87.0284V88.4474H275.271V85.3281H286.93C286.922 84.4418 286.73 83.6534 286.355 82.9631C285.98 82.2642 285.456 81.7145 284.783 81.3139C284.118 80.9134 283.342 80.7131 282.456 80.7131C281.51 80.7131 280.679 80.9432 279.963 81.4034C279.247 81.8551 278.689 82.4517 278.288 83.1932C277.896 83.9261 277.696 84.7315 277.687 85.6094V88.3324C277.687 89.4744 277.896 90.4545 278.314 91.2727C278.731 92.0824 279.315 92.7045 280.065 93.1392C280.815 93.5653 281.693 93.7784 282.699 93.7784C283.372 93.7784 283.981 93.6847 284.527 93.4972C285.072 93.3011 285.545 93.0156 285.946 92.6406C286.346 92.2656 286.649 91.8011 286.854 91.2472L291.175 91.733C290.902 92.875 290.382 93.8722 289.615 94.7244C288.856 95.5682 287.885 96.2244 286.7 96.6932C285.515 97.1534 284.16 97.3835 282.635 97.3835ZM305.261 104.773C303.599 104.773 302.172 104.547 300.979 104.095C299.785 103.652 298.827 103.055 298.102 102.305C297.378 101.555 296.875 100.724 296.594 99.8125L300.761 98.8026C300.949 99.1861 301.221 99.5653 301.579 99.9403C301.937 100.324 302.419 100.639 303.024 100.886C303.638 101.142 304.409 101.27 305.338 101.27C306.65 101.27 307.737 100.95 308.598 100.311C309.459 99.6804 309.889 98.6406 309.889 97.1918V93.4716H309.659C309.42 93.9489 309.071 94.4389 308.611 94.9418C308.159 95.4446 307.558 95.8665 306.808 96.2074C306.067 96.5483 305.133 96.7188 304.008 96.7188C302.5 96.7188 301.132 96.3651 299.905 95.6577C298.686 94.9418 297.714 93.8764 296.99 92.4616C296.274 91.0384 295.916 89.2571 295.916 87.1179C295.916 84.9616 296.274 83.142 296.99 81.6591C297.714 80.1676 298.69 79.0384 299.917 78.2713C301.145 77.4957 302.513 77.108 304.021 77.108C305.172 77.108 306.118 77.304 306.859 77.696C307.609 78.0795 308.206 78.544 308.649 79.0895C309.092 79.6264 309.429 80.1335 309.659 80.6108H309.915V77.3636H314.479V97.3196C314.479 98.9986 314.078 100.388 313.277 101.487C312.476 102.587 311.381 103.409 309.991 103.955C308.602 104.5 307.025 104.773 305.261 104.773ZM305.3 93.0881C306.28 93.0881 307.115 92.8494 307.805 92.3722C308.496 91.8949 309.02 91.2088 309.378 90.3139C309.736 89.419 309.915 88.3452 309.915 87.0923C309.915 85.8565 309.736 84.7741 309.378 83.8452C309.028 82.9162 308.508 82.196 307.818 81.6847C307.136 81.1648 306.297 80.9048 305.3 80.9048C304.268 80.9048 303.408 81.1733 302.717 81.7102C302.027 82.2472 301.507 82.9844 301.158 83.9219C300.808 84.8509 300.633 85.9077 300.633 87.0923C300.633 88.294 300.808 89.3466 301.158 90.25C301.515 91.1449 302.04 91.8437 302.73 92.3466C303.429 92.8409 304.285 93.0881 305.3 93.0881ZM329.227 97.3835C327.309 97.3835 325.647 96.9616 324.241 96.1179C322.835 95.2741 321.744 94.0937 320.968 92.5767C320.201 91.0597 319.818 89.2869 319.818 87.2585C319.818 85.2301 320.201 83.4531 320.968 81.9276C321.744 80.402 322.835 79.2173 324.241 78.3736C325.647 77.5298 327.309 77.108 329.227 77.108C331.144 77.108 332.806 77.5298 334.213 78.3736C335.619 79.2173 336.705 80.402 337.473 81.9276C338.248 83.4531 338.636 85.2301 338.636 87.2585C338.636 89.2869 338.248 91.0597 337.473 92.5767C336.705 94.0937 335.619 95.2741 334.213 96.1179C332.806 96.9616 331.144 97.3835 329.227 97.3835ZM329.252 93.6761C330.292 93.6761 331.161 93.3906 331.86 92.8196C332.559 92.2401 333.079 91.4645 333.42 90.4929C333.769 89.5213 333.944 88.4389 333.944 87.2457C333.944 86.044 333.769 84.9574 333.42 83.9858C333.079 83.0057 332.559 82.2259 331.86 81.6463C331.161 81.0668 330.292 80.777 329.252 80.777C328.187 80.777 327.301 81.0668 326.593 81.6463C325.894 82.2259 325.37 83.0057 325.021 83.9858C324.68 84.9574 324.509 86.044 324.509 87.2457C324.509 88.4389 324.68 89.5213 325.021 90.4929C325.37 91.4645 325.894 92.2401 326.593 92.8196C327.301 93.3906 328.187 93.6761 329.252 93.6761ZM344.004 97V77.3636H348.491V80.6364H348.696C349.054 79.5028 349.667 78.6293 350.536 78.0156C351.414 77.3935 352.416 77.0824 353.541 77.0824C353.796 77.0824 354.082 77.0952 354.397 77.1207C354.721 77.1378 354.99 77.1676 355.203 77.2102V81.4673C355.007 81.3991 354.696 81.3395 354.269 81.2884C353.852 81.2287 353.447 81.1989 353.055 81.1989C352.211 81.1989 351.453 81.3821 350.779 81.7486C350.115 82.1065 349.59 82.6051 349.207 83.2443C348.823 83.8835 348.632 84.6207 348.632 85.456V97H344.004ZM363.191 104.364C362.561 104.364 361.977 104.313 361.44 104.21C360.911 104.116 360.49 104.006 360.174 103.878L361.248 100.273C361.921 100.469 362.522 100.563 363.051 100.554C363.579 100.545 364.044 100.379 364.444 100.055C364.853 99.7401 365.198 99.2116 365.48 98.4702L365.876 97.4091L358.755 77.3636H363.664L368.19 92.1932H368.394L372.933 77.3636H377.855L369.992 99.3778C369.626 100.418 369.14 101.308 368.535 102.05C367.93 102.8 367.188 103.371 366.311 103.763C365.441 104.163 364.402 104.364 363.191 104.364Z" fill="black"/>
<circle cx="1093" cy="85" r="23" fill="#F5F5F5"/>
<path d="M1092 78L1085 85L1092 92M1085 85H1101" stroke="black" stroke-width="2" stroke-linecap="round" stroke-linejoin="round"/>
<circle cx="1147" cy="85" r="23" fill="#F5F5F5"/>
<path d="M1138.5 85H1155M1155 85L1148 78M1155 85L1148 92" stroke="black" stroke-width="1.5" stroke-linecap="round" stroke-linejoin="round"/>
<rect x="0.5" y="168.5" width="169" height="144" rx="3.5" stroke="black" stroke-opacity="0.3"/>
<path d="M63.688 275.112C63.688 276.04 63.368 276.813 62.728 277.432C62.0987 278.04 61.1333 278.344 59.832 278.344H57.688V283H56.232V271.848H59.832C61.0907 271.848 62.0453 272.152 62.696 272.76C63.3573 273.368 63.688 274.152 63.688 275.112ZM59.832 277.144C60.6427 277.144 61.24 276.968 61.624 276.616C62.008 276.264 62.2 275.763 62.2 275.112C62.2 273.736 61.4107 273.048 59.832 273.048H57.688V277.144H59.832ZM69.8496 274.072C70.511 274.072 71.1083 274.216 71.6416 274.504C72.175 274.781 72.591 275.203 72.8896 275.768C73.199 276.333 73.3536 277.021 73.3536 277.832V283H71.9136V278.04C71.9136 277.165 71.695 276.499 71.2576 276.04C70.8203 275.571 70.223 275.336 69.4656 275.336C68.6976 275.336 68.0843 275.576 67.6256 276.056C67.1776 276.536 66.9536 277.235 66.9536 278.152V283H65.4976V271.16H66.9536V275.48C67.2416 275.032 67.6363 274.685 68.1376 274.44C68.6496 274.195 69.2203 274.072 69.8496 274.072ZM79.556 283.144C78.7347 283.144 77.988 282.957 77.316 282.584C76.6547 282.211 76.132 281.683 75.748 281C75.3747 280.307 75.188 279.507 75.188 278.6C75.188 277.704 75.38 276.915 75.764 276.232C76.1587 275.539 76.692 275.011 77.364 274.648C78.036 274.275 78.788 274.088 79.62 274.088C80.452 274.088 81.204 274.275 81.876 274.648C82.548 275.011 83.076 275.533 83.46 276.216C83.8547 276.899 84.052 277.693 84.052 278.6C84.052 279.507 83.8493 280.307 83.444 281C83.0493 281.683 82.5107 282.211 81.828 282.584C81.1453 282.957 80.388 283.144 79.556 283.144ZM79.556 281.864C80.0787 281.864 80.5693 281.741 81.028 281.496C81.4867 281.251 81.8547 280.883 82.132 280.392C82.42 279.901 82.564 279.304 82.564 278.6C82.564 277.896 82.4253 277.299 82.148 276.808C81.8707 276.317 81.508 275.955 81.06 275.72C80.612 275.475 80.1267 275.352 79.604 275.352C79.0707 275.352 78.58 275.475 78.132 275.72C77.6947 275.955 77.3427 276.317 77.076 276.808C76.8093 277.299 76.676 277.896 76.676 278.6C76.676 279.315 76.804 279.917 77.06 280.408C77.3267 280.899 77.6787 281.267 78.116 281.512C78.5533 281.747 79.0333 281.864 79.556 281.864ZM90.2384 274.072C91.305 274.072 92.169 274.397 92.8304 275.048C93.4917 275.688 93.8224 276.616 93.8224 277.832V283H92.3824V278.04C92.3824 277.165 92.1637 276.499 91.7264 276.04C91.289 275.571 90.6917 275.336 89.9344 275.336C89.1664 275.336 88.553 275.576 88.0944 276.056C87.6464 276.536 87.4224 277.235 87.4224 278.152V283H85.9664V274.232H87.4224V275.48C87.7104 275.032 88.0997 274.685 88.5904 274.44C89.0917 274.195 89.641 274.072 90.2384 274.072ZM104.201 278.28C104.201 278.557 104.185 278.851 104.153 279.16H97.1448C97.1981 280.024 97.4914 280.701 98.0248 281.192C98.5688 281.672 99.2248 281.912 99.9928 281.912C100.622 281.912 101.145 281.768 101.561 281.48C101.987 281.181 102.286 280.787 102.457 280.296H104.025C103.79 281.139 103.321 281.827 102.617 282.36C101.913 282.883 101.038 283.144 99.9928 283.144C99.1608 283.144 98.4141 282.957 97.7528 282.584C97.1021 282.211 96.5901 281.683 96.2168 281C95.8434 280.307 95.6568 279.507 95.6568 278.6C95.6568 277.693 95.8381 276.899 96.2008 276.216C96.5634 275.533 97.0701 275.011 97.7208 274.648C98.3821 274.275 99.1394 274.088 99.9928 274.088C100.825 274.088 101.561 274.269 102.201 274.632C102.841 274.995 103.331 275.496 103.673 276.136C104.025 276.765 104.201 277.48 104.201 278.28ZM102.697 277.976C102.697 277.421 102.574 276.947 102.329 276.552C102.083 276.147 101.747 275.843 101.321 275.64C100.905 275.427 100.441 275.32 99.9288 275.32C99.1928 275.32 98.5634 275.555 98.0408 276.024C97.5288 276.493 97.2354 277.144 97.1608 277.976H102.697ZM109.227 283.144C108.555 283.144 107.952 283.032 107.419 282.808C106.885 282.573 106.464 282.253 106.155 281.848C105.845 281.432 105.675 280.957 105.643 280.424H107.147C107.189 280.861 107.392 281.219 107.755 281.496C108.128 281.773 108.613 281.912 109.211 281.912C109.765 281.912 110.203 281.789 110.523 281.544C110.843 281.299 111.003 280.989 111.003 280.616C111.003 280.232 110.832 279.949 110.491 279.768C110.149 279.576 109.621 279.389 108.907 279.208C108.256 279.037 107.723 278.867 107.307 278.696C106.901 278.515 106.549 278.253 106.251 277.912C105.963 277.56 105.819 277.101 105.819 276.536C105.819 276.088 105.952 275.677 106.219 275.304C106.485 274.931 106.864 274.637 107.355 274.424C107.845 274.2 108.405 274.088 109.035 274.088C110.005 274.088 110.789 274.333 111.387 274.824C111.984 275.315 112.304 275.987 112.347 276.84H110.891C110.859 276.381 110.672 276.013 110.331 275.736C110 275.459 109.552 275.32 108.987 275.32C108.464 275.32 108.048 275.432 107.739 275.656C107.429 275.88 107.275 276.173 107.275 276.536C107.275 276.824 107.365 277.064 107.547 277.256C107.739 277.437 107.973 277.587 108.251 277.704C108.539 277.811 108.933 277.933 109.435 278.072C110.064 278.243 110.576 278.413 110.971 278.584C111.365 278.744 111.701 278.989 111.979 279.32C112.267 279.651 112.416 280.083 112.427 280.616C112.427 281.096 112.293 281.528 112.027 281.912C111.76 282.296 111.381 282.6 110.891 282.824C110.411 283.037 109.856 283.144 109.227 283.144Z" fill="black"/>
<g clip-path="url(#clip0_142_1509)">
<path d="M95.9375 199.125H74.0625C72.5523 199.125 71.3281 200.349 71.3281 201.859V240.141C71.3281 241.651 72.5523 242.875 74.0625 242.875H95.9375C97.4477 242.875 98.6719 241.651 98.6719 240.141V201.859C98.6719 200.349 97.4477 199.125 95.9375 199.125Z" stroke="black" stroke-width="2" stroke-linecap="round" stroke-linejoin="round"/>
<path d="M82.6667 200H88.1354" stroke="black" stroke-width="3" stroke-linecap="round" stroke-linejoin="round"/>
<path d="M85 237.005V237.031" stroke="black" stroke-width="2.5" stroke-linecap="round" stroke-linejoin="round"/>
<line x1="72.1667" y1="232.833" x2="97.8333" y2="232.833" stroke="black" stroke-width="2"/>
</g>
<rect x="200.5" y="168.5" width="169" height="144" rx="3.5" stroke="black" stroke-opacity="0.3"/>
<path d="M240.688 277.416C240.688 276.328 240.933 275.352 241.424 274.488C241.915 273.613 242.581 272.931 243.424 272.44C244.277 271.949 245.221 271.704 246.256 271.704C247.472 271.704 248.533 271.997 249.44 272.584C250.347 273.171 251.008 274.003 251.424 275.08H249.68C249.371 274.408 248.923 273.891 248.336 273.528C247.76 273.165 247.067 272.984 246.256 272.984C245.477 272.984 244.779 273.165 244.16 273.528C243.541 273.891 243.056 274.408 242.704 275.08C242.352 275.741 242.176 276.52 242.176 277.416C242.176 278.301 242.352 279.08 242.704 279.752C243.056 280.413 243.541 280.925 244.16 281.288C244.779 281.651 245.477 281.832 246.256 281.832C247.067 281.832 247.76 281.656 248.336 281.304C248.923 280.941 249.371 280.424 249.68 279.752H251.424C251.008 280.819 250.347 281.645 249.44 282.232C248.533 282.808 247.472 283.096 246.256 283.096C245.221 283.096 244.277 282.856 243.424 282.376C242.581 281.885 241.915 281.208 241.424 280.344C240.933 279.48 240.688 278.504 240.688 277.416ZM257.415 283.144C256.594 283.144 255.847 282.957 255.175 282.584C254.514 282.211 253.991 281.683 253.607 281C253.234 280.307 253.047 279.507 253.047 278.6C253.047 277.704 253.239 276.915 253.623 276.232C254.018 275.539 254.551 275.011 255.223 274.648C255.895 274.275 256.647 274.088 257.479 274.088C258.311 274.088 259.063 274.275 259.735 274.648C260.407 275.011 260.935 275.533 261.319 276.216C261.714 276.899 261.911 277.693 261.911 278.6C261.911 279.507 261.709 280.307 261.303 281C260.909 281.683 260.37 282.211 259.687 282.584C259.005 282.957 258.247 283.144 257.415 283.144ZM257.415 281.864C257.938 281.864 258.429 281.741 258.887 281.496C259.346 281.251 259.714 280.883 259.991 280.392C260.279 279.901 260.423 279.304 260.423 278.6C260.423 277.896 260.285 277.299 260.007 276.808C259.73 276.317 259.367 275.955 258.919 275.72C258.471 275.475 257.986 275.352 257.463 275.352C256.93 275.352 256.439 275.475 255.991 275.72C255.554 275.955 255.202 276.317 254.935 276.808C254.669 277.299 254.535 277.896 254.535 278.6C254.535 279.315 254.663 279.917 254.919 280.408C255.186 280.899 255.538 281.267 255.975 281.512C256.413 281.747 256.893 281.864 257.415 281.864ZM274.37 274.072C275.052 274.072 275.66 274.216 276.194 274.504C276.727 274.781 277.148 275.203 277.458 275.768C277.767 276.333 277.922 277.021 277.922 277.832V283H276.482V278.04C276.482 277.165 276.263 276.499 275.826 276.04C275.399 275.571 274.818 275.336 274.082 275.336C273.324 275.336 272.722 275.581 272.274 276.072C271.826 276.552 271.602 277.251 271.602 278.168V283H270.162V278.04C270.162 277.165 269.943 276.499 269.506 276.04C269.079 275.571 268.498 275.336 267.762 275.336C267.004 275.336 266.402 275.581 265.954 276.072C265.506 276.552 265.282 277.251 265.282 278.168V283H263.826V274.232H265.282V275.496C265.57 275.037 265.954 274.685 266.434 274.44C266.924 274.195 267.463 274.072 268.05 274.072C268.786 274.072 269.436 274.237 270.002 274.568C270.567 274.899 270.988 275.384 271.266 276.024C271.511 275.405 271.916 274.925 272.482 274.584C273.047 274.243 273.676 274.072 274.37 274.072ZM281.766 275.848C282.054 275.347 282.481 274.931 283.046 274.6C283.622 274.259 284.289 274.088 285.046 274.088C285.825 274.088 286.529 274.275 287.158 274.648C287.798 275.021 288.299 275.549 288.662 276.232C289.025 276.904 289.206 277.688 289.206 278.584C289.206 279.469 289.025 280.259 288.662 280.952C288.299 281.645 287.798 282.184 287.158 282.568C286.529 282.952 285.825 283.144 285.046 283.144C284.299 283.144 283.638 282.979 283.062 282.648C282.497 282.307 282.065 281.885 281.766 281.384V287.16H280.31V274.232H281.766V275.848ZM287.718 278.584C287.718 277.923 287.585 277.347 287.318 276.856C287.051 276.365 286.689 275.992 286.23 275.736C285.782 275.48 285.286 275.352 284.742 275.352C284.209 275.352 283.713 275.485 283.254 275.752C282.806 276.008 282.443 276.387 282.166 276.888C281.899 277.379 281.766 277.949 281.766 278.6C281.766 279.261 281.899 279.843 282.166 280.344C282.443 280.835 282.806 281.213 283.254 281.48C283.713 281.736 284.209 281.864 284.742 281.864C285.286 281.864 285.782 281.736 286.23 281.48C286.689 281.213 287.051 280.835 287.318 280.344C287.585 279.843 287.718 279.256 287.718 278.584ZM298.899 274.232V283H297.443V281.704C297.165 282.152 296.776 282.504 296.275 282.76C295.784 283.005 295.24 283.128 294.643 283.128C293.96 283.128 293.347 282.989 292.803 282.712C292.259 282.424 291.827 281.997 291.507 281.432C291.197 280.867 291.043 280.179 291.043 279.368V274.232H292.483V279.176C292.483 280.04 292.701 280.707 293.139 281.176C293.576 281.635 294.173 281.864 294.931 281.864C295.709 281.864 296.323 281.624 296.771 281.144C297.219 280.664 297.443 279.965 297.443 279.048V274.232H298.899ZM303.133 275.432V280.6C303.133 281.027 303.224 281.331 303.405 281.512C303.586 281.683 303.901 281.768 304.349 281.768H305.421V283H304.109C303.298 283 302.69 282.813 302.285 282.44C301.88 282.067 301.677 281.453 301.677 280.6V275.432H300.541V274.232H301.677V272.024H303.133V274.232H305.421V275.432H303.133ZM315.185 278.28C315.185 278.557 315.169 278.851 315.137 279.16H308.129C308.182 280.024 308.476 280.701 309.009 281.192C309.553 281.672 310.209 281.912 310.977 281.912C311.606 281.912 312.129 281.768 312.545 281.48C312.972 281.181 313.27 280.787 313.441 280.296H315.009C314.774 281.139 314.305 281.827 313.601 282.36C312.897 282.883 312.022 283.144 310.977 283.144C310.145 283.144 309.398 282.957 308.737 282.584C308.086 282.211 307.574 281.683 307.201 281C306.828 280.307 306.641 279.507 306.641 278.6C306.641 277.693 306.822 276.899 307.185 276.216C307.548 275.533 308.054 275.011 308.705 274.648C309.366 274.275 310.124 274.088 310.977 274.088C311.809 274.088 312.545 274.269 313.185 274.632C313.825 274.995 314.316 275.496 314.657 276.136C315.009 276.765 315.185 277.48 315.185 278.28ZM313.681 277.976C313.681 277.421 313.558 276.947 313.313 276.552C313.068 276.147 312.732 275.843 312.305 275.64C311.889 275.427 311.425 275.32 310.913 275.32C310.177 275.32 309.548 275.555 309.025 276.024C308.513 276.493 308.22 277.144 308.145 277.976H313.681ZM318.563 275.656C318.819 275.155 319.182 274.765 319.651 274.488C320.131 274.211 320.712 274.072 321.395 274.072V275.576H321.011C319.379 275.576 318.563 276.461 318.563 278.232V283H317.107V274.232H318.563V275.656ZM326.18 283.144C325.508 283.144 324.905 283.032 324.372 282.808C323.838 282.573 323.417 282.253 323.108 281.848C322.798 281.432 322.628 280.957 322.596 280.424H324.1C324.142 280.861 324.345 281.219 324.708 281.496C325.081 281.773 325.566 281.912 326.164 281.912C326.718 281.912 327.156 281.789 327.476 281.544C327.796 281.299 327.956 280.989 327.956 280.616C327.956 280.232 327.785 279.949 327.444 279.768C327.102 279.576 326.574 279.389 325.86 279.208C325.209 279.037 324.676 278.867 324.26 278.696C323.854 278.515 323.502 278.253 323.204 277.912C322.916 277.56 322.772 277.101 322.772 276.536C322.772 276.088 322.905 275.677 323.172 275.304C323.438 274.931 323.817 274.637 324.308 274.424C324.798 274.2 325.358 274.088 325.988 274.088C326.958 274.088 327.742 274.333 328.34 274.824C328.937 275.315 329.257 275.987 329.3 276.84H327.844C327.812 276.381 327.625 276.013 327.284 275.736C326.953 275.459 326.505 275.32 325.94 275.32C325.417 275.32 325.001 275.432 324.692 275.656C324.382 275.88 324.228 276.173 324.228 276.536C324.228 276.824 324.318 277.064 324.5 277.256C324.692 277.437 324.926 277.587 325.204 277.704C325.492 277.811 325.886 277.933 326.388 278.072C327.017 278.243 327.529 278.413 327.924 278.584C328.318 278.744 328.654 278.989 328.932 279.32C329.22 279.651 329.369 280.083 329.38 280.616C329.38 281.096 329.246 281.528 328.98 281.912C328.713 282.296 328.334 282.6 327.844 282.824C327.364 283.037 326.809 283.144 326.18 283.144Z" fill="black"/>
<g clip-path="url(#clip1_142_1509)">
<path d="M304.667 202.333H267.333C266.045 202.333 265 203.378 265 204.667V228C265 229.289 266.045 230.333 267.333 230.333H304.667C305.955 230.333 307 229.289 307 228V204.667C307 203.378 305.955 202.333 304.667 202.333Z" stroke="black" stroke-width="2" stroke-linecap="round" stroke-linejoin="round"/>
<path d="M274.333 239.667H297.667" stroke="black" stroke-width="2" stroke-linecap="round" stroke-linejoin="round"/>
<path d="M279 230.333V239.667" stroke="black" stroke-width="2" stroke-linecap="round" stroke-linejoin="round"/>
<path d="M293 230.333V239.667" stroke="black" stroke-width="2" stroke-linecap="round" stroke-linejoin="round"/>
<path d="M266 225H306" stroke="black" stroke-width="2" stroke-linecap="round"/>
</g>
<rect x="400.5" y="168.5" width="169" height="144" rx="3.5" stroke="black" stroke-opacity="0.3"/>
<path d="M438.768 283.112C438.032 283.112 437.371 282.984 436.784 282.728C436.208 282.461 435.755 282.099 435.424 281.64C435.093 281.171 434.923 280.632 434.912 280.024H436.464C436.517 280.547 436.731 280.989 437.104 281.352C437.488 281.704 438.043 281.88 438.768 281.88C439.461 281.88 440.005 281.709 440.4 281.368C440.805 281.016 441.008 280.568 441.008 280.024C441.008 279.597 440.891 279.251 440.656 278.984C440.421 278.717 440.128 278.515 439.776 278.376C439.424 278.237 438.949 278.088 438.352 277.928C437.616 277.736 437.024 277.544 436.576 277.352C436.139 277.16 435.76 276.861 435.44 276.456C435.131 276.04 434.976 275.485 434.976 274.792C434.976 274.184 435.131 273.645 435.44 273.176C435.749 272.707 436.181 272.344 436.736 272.088C437.301 271.832 437.947 271.704 438.672 271.704C439.717 271.704 440.571 271.965 441.232 272.488C441.904 273.011 442.283 273.704 442.368 274.568H440.768C440.715 274.141 440.491 273.768 440.096 273.448C439.701 273.117 439.179 272.952 438.528 272.952C437.92 272.952 437.424 273.112 437.04 273.432C436.656 273.741 436.464 274.179 436.464 274.744C436.464 275.149 436.576 275.48 436.8 275.736C437.035 275.992 437.317 276.189 437.648 276.328C437.989 276.456 438.464 276.605 439.072 276.776C439.808 276.979 440.4 277.181 440.848 277.384C441.296 277.576 441.68 277.88 442 278.296C442.32 278.701 442.48 279.256 442.48 279.96C442.48 280.504 442.336 281.016 442.048 281.496C441.76 281.976 441.333 282.365 440.768 282.664C440.203 282.963 439.536 283.112 438.768 283.112ZM455.167 274.072C455.849 274.072 456.457 274.216 456.991 274.504C457.524 274.781 457.945 275.203 458.255 275.768C458.564 276.333 458.719 277.021 458.719 277.832V283H457.279V278.04C457.279 277.165 457.06 276.499 456.623 276.04C456.196 275.571 455.615 275.336 454.879 275.336C454.121 275.336 453.519 275.581 453.071 276.072C452.623 276.552 452.399 277.251 452.399 278.168V283H450.959V278.04C450.959 277.165 450.74 276.499 450.303 276.04C449.876 275.571 449.295 275.336 448.559 275.336C447.801 275.336 447.199 275.581 446.751 276.072C446.303 276.552 446.079 277.251 446.079 278.168V283H444.623V274.232H446.079V275.496C446.367 275.037 446.751 274.685 447.231 274.44C447.721 274.195 448.26 274.072 448.847 274.072C449.583 274.072 450.233 274.237 450.799 274.568C451.364 274.899 451.785 275.384 452.063 276.024C452.308 275.405 452.713 274.925 453.279 274.584C453.844 274.243 454.473 274.072 455.167 274.072ZM460.563 278.584C460.563 277.688 460.744 276.904 461.107 276.232C461.47 275.549 461.966 275.021 462.595 274.648C463.235 274.275 463.944 274.088 464.723 274.088C465.491 274.088 466.158 274.253 466.723 274.584C467.288 274.915 467.71 275.331 467.987 275.832V274.232H469.459V283H467.987V281.368C467.699 281.88 467.267 282.307 466.691 282.648C466.126 282.979 465.464 283.144 464.707 283.144C463.928 283.144 463.224 282.952 462.595 282.568C461.966 282.184 461.47 281.645 461.107 280.952C460.744 280.259 460.563 279.469 460.563 278.584ZM467.987 278.6C467.987 277.939 467.854 277.363 467.587 276.872C467.32 276.381 466.958 276.008 466.499 275.752C466.051 275.485 465.555 275.352 465.011 275.352C464.467 275.352 463.971 275.48 463.523 275.736C463.075 275.992 462.718 276.365 462.451 276.856C462.184 277.347 462.051 277.923 462.051 278.584C462.051 279.256 462.184 279.843 462.451 280.344C462.718 280.835 463.075 281.213 463.523 281.48C463.971 281.736 464.467 281.864 465.011 281.864C465.555 281.864 466.051 281.736 466.499 281.48C466.958 281.213 467.32 280.835 467.587 280.344C467.854 279.843 467.987 279.261 467.987 278.6ZM473.376 275.656C473.632 275.155 473.994 274.765 474.464 274.488C474.944 274.211 475.525 274.072 476.208 274.072V275.576H475.824C474.192 275.576 473.376 276.461 473.376 278.232V283H471.92V274.232H473.376V275.656ZM479.664 275.432V280.6C479.664 281.027 479.755 281.331 479.936 281.512C480.118 281.683 480.432 281.768 480.88 281.768H481.952V283H480.64C479.83 283 479.222 282.813 478.816 282.44C478.411 282.067 478.208 281.453 478.208 280.6V275.432H477.072V274.232H478.208V272.024H479.664V274.232H481.952V275.432H479.664ZM497.732 271.848L494.5 283H492.868L490.276 274.024L487.588 283L485.972 283.016L482.852 271.848H484.404L486.836 281.304L489.524 271.848H491.156L493.716 281.272L496.164 271.848H497.732ZM498.782 278.584C498.782 277.688 498.963 276.904 499.326 276.232C499.688 275.549 500.184 275.021 500.814 274.648C501.454 274.275 502.163 274.088 502.942 274.088C503.71 274.088 504.376 274.253 504.942 274.584C505.507 274.915 505.928 275.331 506.206 275.832V274.232H507.678V283H506.206V281.368C505.918 281.88 505.486 282.307 504.91 282.648C504.344 282.979 503.683 283.144 502.926 283.144C502.147 283.144 501.443 282.952 500.814 282.568C500.184 282.184 499.688 281.645 499.326 280.952C498.963 280.259 498.782 279.469 498.782 278.584ZM506.206 278.6C506.206 277.939 506.072 277.363 505.806 276.872C505.539 276.381 505.176 276.008 504.718 275.752C504.27 275.485 503.774 275.352 503.23 275.352C502.686 275.352 502.19 275.48 501.742 275.736C501.294 275.992 500.936 276.365 500.67 276.856C500.403 277.347 500.27 277.923 500.27 278.584C500.27 279.256 500.403 279.843 500.67 280.344C500.936 280.835 501.294 281.213 501.742 281.48C502.19 281.736 502.686 281.864 503.23 281.864C503.774 281.864 504.27 281.736 504.718 281.48C505.176 281.213 505.539 280.835 505.806 280.344C506.072 279.843 506.206 279.261 506.206 278.6ZM511.914 275.432V280.6C511.914 281.027 512.005 281.331 512.186 281.512C512.368 281.683 512.682 281.768 513.13 281.768H514.202V283H512.89C512.08 283 511.472 282.813 511.066 282.44C510.661 282.067 510.458 281.453 510.458 280.6V275.432H509.322V274.232H510.458V272.024H511.914V274.232H514.202V275.432H511.914ZM515.422 278.6C515.422 277.693 515.604 276.904 515.966 276.232C516.329 275.549 516.83 275.021 517.47 274.648C518.121 274.275 518.862 274.088 519.694 274.088C520.772 274.088 521.657 274.349 522.35 274.872C523.054 275.395 523.518 276.12 523.742 277.048H522.174C522.025 276.515 521.732 276.093 521.294 275.784C520.868 275.475 520.334 275.32 519.694 275.32C518.862 275.32 518.19 275.608 517.678 276.184C517.166 276.749 516.91 277.555 516.91 278.6C516.91 279.656 517.166 280.472 517.678 281.048C518.19 281.624 518.862 281.912 519.694 281.912C520.334 281.912 520.868 281.763 521.294 281.464C521.721 281.165 522.014 280.739 522.174 280.184H523.742C523.508 281.08 523.038 281.8 522.334 282.344C521.63 282.877 520.75 283.144 519.694 283.144C518.862 283.144 518.121 282.957 517.47 282.584C516.83 282.211 516.329 281.683 515.966 281C515.604 280.317 515.422 279.517 515.422 278.6ZM530.037 274.072C530.698 274.072 531.296 274.216 531.829 274.504C532.362 274.781 532.778 275.203 533.077 275.768C533.386 276.333 533.541 277.021 533.541 277.832V283H532.101V278.04C532.101 277.165 531.882 276.499 531.445 276.04C531.008 275.571 530.41 275.336 529.653 275.336C528.885 275.336 528.272 275.576 527.813 276.056C527.365 276.536 527.141 277.235 527.141 278.152V283H525.685V271.16H527.141V275.48C527.429 275.032 527.824 274.685 528.325 274.44C528.837 274.195 529.408 274.072 530.037 274.072Z" fill="black"/>
<g clip-path="url(#clip2_142_1509)">
<path d="M492 207H478C474.134 207 471 210.134 471 214V228C471 231.866 474.134 235 478 235H492C495.866 235 499 231.866 499 228V214C499 210.134 495.866 207 492 207Z" stroke="black" stroke-width="2" stroke-linecap="round" stroke-linejoin="round"/>
<path d="M478 235V242H492V235" stroke="black" stroke-width="2" stroke-linecap="round" stroke-linejoin="round"/>
<path d="M478 207V200H492V207" stroke="black" stroke-width="2" stroke-linecap="round" stroke-linejoin="round"/>
<line x1="481" y1="216" x2="481" y2="227" stroke="black" stroke-width="2" stroke-linecap="round"/>
<line x1="485" y1="221" x2="485" y2="227" stroke="black" stroke-width="2" stroke-linecap="round"/>
<line x1="489" y1="219" x2="489" y2="227" stroke="black" stroke-width="2" stroke-linecap="round"/>
</g>
<g filter="url(#filter0_d_142_1509)">
<rect x="600" y="168" width="170" height="145" rx="4" fill="#DB4444"/>
<path d="M651.688 277.416C651.688 276.328 651.933 275.352 652.424 274.488C652.915 273.613 653.581 272.931 654.424 272.44C655.277 271.949 656.221 271.704 657.256 271.704C658.472 271.704 659.533 271.997 660.44 272.584C661.347 273.171 662.008 274.003 662.424 275.08H660.68C660.371 274.408 659.923 273.891 659.336 273.528C658.76 273.165 658.067 272.984 657.256 272.984C656.477 272.984 655.779 273.165 655.16 273.528C654.541 273.891 654.056 274.408 653.704 275.08C653.352 275.741 653.176 276.52 653.176 277.416C653.176 278.301 653.352 279.08 653.704 279.752C654.056 280.413 654.541 280.925 655.16 281.288C655.779 281.651 656.477 281.832 657.256 281.832C658.067 281.832 658.76 281.656 659.336 281.304C659.923 280.941 660.371 280.424 660.68 279.752H662.424C662.008 280.819 661.347 281.645 660.44 282.232C659.533 282.808 658.472 283.096 657.256 283.096C656.221 283.096 655.277 282.856 654.424 282.376C653.581 281.885 652.915 281.208 652.424 280.344C651.933 279.48 651.688 278.504 651.688 277.416ZM664.047 278.584C664.047 277.688 664.229 276.904 664.591 276.232C664.954 275.549 665.45 275.021 666.079 274.648C666.719 274.275 667.429 274.088 668.207 274.088C668.975 274.088 669.642 274.253 670.207 274.584C670.773 274.915 671.194 275.331 671.471 275.832V274.232H672.943V283H671.471V281.368C671.183 281.88 670.751 282.307 670.175 282.648C669.61 282.979 668.949 283.144 668.191 283.144C667.413 283.144 666.709 282.952 666.079 282.568C665.45 282.184 664.954 281.645 664.591 280.952C664.229 280.259 664.047 279.469 664.047 278.584ZM671.471 278.6C671.471 277.939 671.338 277.363 671.071 276.872C670.805 276.381 670.442 276.008 669.983 275.752C669.535 275.485 669.039 275.352 668.495 275.352C667.951 275.352 667.455 275.48 667.007 275.736C666.559 275.992 666.202 276.365 665.935 276.856C665.669 277.347 665.535 277.923 665.535 278.584C665.535 279.256 665.669 279.843 665.935 280.344C666.202 280.835 666.559 281.213 667.007 281.48C667.455 281.736 667.951 281.864 668.495 281.864C669.039 281.864 669.535 281.736 669.983 281.48C670.442 281.213 670.805 280.835 671.071 280.344C671.338 279.843 671.471 279.261 671.471 278.6ZM685.948 274.072C686.631 274.072 687.239 274.216 687.772 274.504C688.305 274.781 688.727 275.203 689.036 275.768C689.345 276.333 689.5 277.021 689.5 277.832V283H688.06V278.04C688.06 277.165 687.841 276.499 687.404 276.04C686.977 275.571 686.396 275.336 685.66 275.336C684.903 275.336 684.3 275.581 683.852 276.072C683.404 276.552 683.18 277.251 683.18 278.168V283H681.74V278.04C681.74 277.165 681.521 276.499 681.084 276.04C680.657 275.571 680.076 275.336 679.34 275.336C678.583 275.336 677.98 275.581 677.532 276.072C677.084 276.552 676.86 277.251 676.86 278.168V283H675.404V274.232H676.86V275.496C677.148 275.037 677.532 274.685 678.012 274.44C678.503 274.195 679.041 274.072 679.628 274.072C680.364 274.072 681.015 274.237 681.58 274.568C682.145 274.899 682.567 275.384 682.844 276.024C683.089 275.405 683.495 274.925 684.06 274.584C684.625 274.243 685.255 274.072 685.948 274.072ZM699.888 278.28C699.888 278.557 699.872 278.851 699.84 279.16H692.832C692.886 280.024 693.179 280.701 693.712 281.192C694.256 281.672 694.912 281.912 695.68 281.912C696.31 281.912 696.832 281.768 697.248 281.48C697.675 281.181 697.974 280.787 698.144 280.296H699.712C699.478 281.139 699.008 281.827 698.304 282.36C697.6 282.883 696.726 283.144 695.68 283.144C694.848 283.144 694.102 282.957 693.44 282.584C692.79 282.211 692.278 281.683 691.904 281C691.531 280.307 691.344 279.507 691.344 278.6C691.344 277.693 691.526 276.899 691.888 276.216C692.251 275.533 692.758 275.011 693.408 274.648C694.07 274.275 694.827 274.088 695.68 274.088C696.512 274.088 697.248 274.269 697.888 274.632C698.528 274.995 699.019 275.496 699.36 276.136C699.712 276.765 699.888 277.48 699.888 278.28ZM698.384 277.976C698.384 277.421 698.262 276.947 698.016 276.552C697.771 276.147 697.435 275.843 697.008 275.64C696.592 275.427 696.128 275.32 695.616 275.32C694.88 275.32 694.251 275.555 693.728 276.024C693.216 276.493 692.923 277.144 692.848 277.976H698.384ZM703.266 275.656C703.522 275.155 703.885 274.765 704.354 274.488C704.834 274.211 705.415 274.072 706.098 274.072V275.576H705.714C704.082 275.576 703.266 276.461 703.266 278.232V283H701.81V274.232H703.266V275.656ZM707.235 278.584C707.235 277.688 707.416 276.904 707.779 276.232C708.142 275.549 708.638 275.021 709.267 274.648C709.907 274.275 710.616 274.088 711.395 274.088C712.163 274.088 712.83 274.253 713.395 274.584C713.96 274.915 714.382 275.331 714.659 275.832V274.232H716.131V283H714.659V281.368C714.371 281.88 713.939 282.307 713.363 282.648C712.798 282.979 712.136 283.144 711.379 283.144C710.6 283.144 709.896 282.952 709.267 282.568C708.638 282.184 708.142 281.645 707.779 280.952C707.416 280.259 707.235 279.469 707.235 278.584ZM714.659 278.6C714.659 277.939 714.526 277.363 714.259 276.872C713.992 276.381 713.63 276.008 713.171 275.752C712.723 275.485 712.227 275.352 711.683 275.352C711.139 275.352 710.643 275.48 710.195 275.736C709.747 275.992 709.39 276.365 709.123 276.856C708.856 277.347 708.723 277.923 708.723 278.584C708.723 279.256 708.856 279.843 709.123 280.344C709.39 280.835 709.747 281.213 710.195 281.48C710.643 281.736 711.139 281.864 711.683 281.864C712.227 281.864 712.723 281.736 713.171 281.48C713.63 281.213 713.992 280.835 714.259 280.344C714.526 279.843 714.659 279.261 714.659 278.6Z" fill="#FAFAFA"/>
<g clip-path="url(#clip3_142_1509)">
<path d="M668.667 209.333H671C672.238 209.333 673.425 208.842 674.3 207.967C675.175 207.091 675.667 205.904 675.667 204.667C675.667 204.048 675.912 203.454 676.35 203.017C676.788 202.579 677.381 202.333 678 202.333H692C692.619 202.333 693.212 202.579 693.65 203.017C694.087 203.454 694.333 204.048 694.333 204.667C694.333 205.904 694.825 207.091 695.7 207.967C696.575 208.842 697.762 209.333 699 209.333H701.333C702.571 209.333 703.758 209.825 704.633 210.7C705.508 211.575 706 212.762 706 214V235C706 236.238 705.508 237.425 704.633 238.3C703.758 239.175 702.571 239.667 701.333 239.667H668.667C667.429 239.667 666.242 239.175 665.367 238.3C664.492 237.425 664 236.238 664 235V214C664 212.762 664.492 211.575 665.367 210.7C666.242 209.825 667.429 209.333 668.667 209.333" stroke="white" stroke-width="2" stroke-linecap="round" stroke-linejoin="round"/>
<path d="M685 230.333C688.866 230.333 692 227.199 692 223.333C692 219.467 688.866 216.333 685 216.333C681.134 216.333 678 219.467 678 223.333C678 227.199 681.134 230.333 685 230.333Z" stroke="white" stroke-width="2" stroke-linecap="round" stroke-linejoin="round"/>
</g>
</g>
<rect x="800.5" y="168.5" width="169" height="144" rx="3.5" stroke="black" stroke-opacity="0.3"/>
<path d="M843.824 271.848V283H842.368V277.944H836.688V283H835.232V271.848H836.688V276.744H842.368V271.848H843.824ZM854.31 278.28C854.31 278.557 854.294 278.851 854.262 279.16H847.254C847.307 280.024 847.601 280.701 848.134 281.192C848.678 281.672 849.334 281.912 850.102 281.912C850.731 281.912 851.254 281.768 851.67 281.48C852.097 281.181 852.395 280.787 852.566 280.296H854.134C853.899 281.139 853.43 281.827 852.726 282.36C852.022 282.883 851.147 283.144 850.102 283.144C849.27 283.144 848.523 282.957 847.862 282.584C847.211 282.211 846.699 281.683 846.326 281C845.953 280.307 845.766 279.507 845.766 278.6C845.766 277.693 845.947 276.899 846.31 276.216C846.673 275.533 847.179 275.011 847.83 274.648C848.491 274.275 849.249 274.088 850.102 274.088C850.934 274.088 851.67 274.269 852.31 274.632C852.95 274.995 853.441 275.496 853.782 276.136C854.134 276.765 854.31 277.48 854.31 278.28ZM852.806 277.976C852.806 277.421 852.683 276.947 852.438 276.552C852.193 276.147 851.857 275.843 851.43 275.64C851.014 275.427 850.55 275.32 850.038 275.32C849.302 275.32 848.673 275.555 848.15 276.024C847.638 276.493 847.345 277.144 847.27 277.976H852.806ZM855.688 278.584C855.688 277.688 855.869 276.904 856.232 276.232C856.595 275.549 857.091 275.021 857.72 274.648C858.36 274.275 859.069 274.088 859.848 274.088C860.616 274.088 861.283 274.253 861.848 274.584C862.413 274.915 862.835 275.331 863.112 275.832V274.232H864.584V283H863.112V281.368C862.824 281.88 862.392 282.307 861.816 282.648C861.251 282.979 860.589 283.144 859.832 283.144C859.053 283.144 858.349 282.952 857.72 282.568C857.091 282.184 856.595 281.645 856.232 280.952C855.869 280.259 855.688 279.469 855.688 278.584ZM863.112 278.6C863.112 277.939 862.979 277.363 862.712 276.872C862.445 276.381 862.083 276.008 861.624 275.752C861.176 275.485 860.68 275.352 860.136 275.352C859.592 275.352 859.096 275.48 858.648 275.736C858.2 275.992 857.843 276.365 857.576 276.856C857.309 277.347 857.176 277.923 857.176 278.584C857.176 279.256 857.309 279.843 857.576 280.344C857.843 280.835 858.2 281.213 858.648 281.48C859.096 281.736 859.592 281.864 860.136 281.864C860.68 281.864 861.176 281.736 861.624 281.48C862.083 281.213 862.445 280.835 862.712 280.344C862.979 279.843 863.112 279.261 863.112 278.6ZM866.501 278.584C866.501 277.688 866.682 276.904 867.045 276.232C867.407 275.549 867.903 275.021 868.533 274.648C869.173 274.275 869.887 274.088 870.677 274.088C871.359 274.088 871.994 274.248 872.581 274.568C873.167 274.877 873.615 275.288 873.925 275.8V271.16H875.397V283H873.925V281.352C873.637 281.875 873.21 282.307 872.645 282.648C872.079 282.979 871.418 283.144 870.661 283.144C869.882 283.144 869.173 282.952 868.533 282.568C867.903 282.184 867.407 281.645 867.045 280.952C866.682 280.259 866.501 279.469 866.501 278.584ZM873.925 278.6C873.925 277.939 873.791 277.363 873.525 276.872C873.258 276.381 872.895 276.008 872.437 275.752C871.989 275.485 871.493 275.352 870.949 275.352C870.405 275.352 869.909 275.48 869.461 275.736C869.013 275.992 868.655 276.365 868.389 276.856C868.122 277.347 867.989 277.923 867.989 278.584C867.989 279.256 868.122 279.843 868.389 280.344C868.655 280.835 869.013 281.213 869.461 281.48C869.909 281.736 870.405 281.864 870.949 281.864C871.493 281.864 871.989 281.736 872.437 281.48C872.895 281.213 873.258 280.835 873.525 280.344C873.791 279.843 873.925 279.261 873.925 278.6ZM885.313 275.112C885.313 276.04 884.993 276.813 884.353 277.432C883.724 278.04 882.758 278.344 881.457 278.344H879.313V283H877.857V271.848H881.457C882.716 271.848 883.67 272.152 884.321 272.76C884.982 273.368 885.313 274.152 885.313 275.112ZM881.457 277.144C882.268 277.144 882.865 276.968 883.249 276.616C883.633 276.264 883.825 275.763 883.825 275.112C883.825 273.736 883.036 273.048 881.457 273.048H879.313V277.144H881.457ZM891.475 274.072C892.136 274.072 892.733 274.216 893.267 274.504C893.8 274.781 894.216 275.203 894.515 275.768C894.824 276.333 894.979 277.021 894.979 277.832V283H893.539V278.04C893.539 277.165 893.32 276.499 892.883 276.04C892.445 275.571 891.848 275.336 891.091 275.336C890.323 275.336 889.709 275.576 889.251 276.056C888.803 276.536 888.579 277.235 888.579 278.152V283H887.123V271.16H888.579V275.48C888.867 275.032 889.261 274.685 889.763 274.44C890.275 274.195 890.845 274.072 891.475 274.072ZM901.181 283.144C900.36 283.144 899.613 282.957 898.941 282.584C898.28 282.211 897.757 281.683 897.373 281C897 280.307 896.813 279.507 896.813 278.6C896.813 277.704 897.005 276.915 897.389 276.232C897.784 275.539 898.317 275.011 898.989 274.648C899.661 274.275 900.413 274.088 901.245 274.088C902.077 274.088 902.829 274.275 903.501 274.648C904.173 275.011 904.701 275.533 905.085 276.216C905.48 276.899 905.677 277.693 905.677 278.6C905.677 279.507 905.474 280.307 905.069 281C904.674 281.683 904.136 282.211 903.453 282.584C902.77 282.957 902.013 283.144 901.181 283.144ZM901.181 281.864C901.704 281.864 902.194 281.741 902.653 281.496C903.112 281.251 903.48 280.883 903.757 280.392C904.045 279.901 904.189 279.304 904.189 278.6C904.189 277.896 904.05 277.299 903.773 276.808C903.496 276.317 903.133 275.955 902.685 275.72C902.237 275.475 901.752 275.352 901.229 275.352C900.696 275.352 900.205 275.475 899.757 275.72C899.32 275.955 898.968 276.317 898.701 276.808C898.434 277.299 898.301 277.896 898.301 278.6C898.301 279.315 898.429 279.917 898.685 280.408C898.952 280.899 899.304 281.267 899.741 281.512C900.178 281.747 900.658 281.864 901.181 281.864ZM911.863 274.072C912.93 274.072 913.794 274.397 914.455 275.048C915.117 275.688 915.447 276.616 915.447 277.832V283H914.007V278.04C914.007 277.165 913.789 276.499 913.351 276.04C912.914 275.571 912.317 275.336 911.559 275.336C910.791 275.336 910.178 275.576 909.719 276.056C909.271 276.536 909.047 277.235 909.047 278.152V283H907.591V274.232H909.047V275.48C909.335 275.032 909.725 274.685 910.215 274.44C910.717 274.195 911.266 274.072 911.863 274.072ZM925.826 278.28C925.826 278.557 925.81 278.851 925.778 279.16H918.77C918.823 280.024 919.116 280.701 919.65 281.192C920.194 281.672 920.85 281.912 921.618 281.912C922.247 281.912 922.77 281.768 923.186 281.48C923.612 281.181 923.911 280.787 924.082 280.296H925.65C925.415 281.139 924.946 281.827 924.242 282.36C923.538 282.883 922.663 283.144 921.618 283.144C920.786 283.144 920.039 282.957 919.378 282.584C918.727 282.211 918.215 281.683 917.842 281C917.468 280.307 917.282 279.507 917.282 278.6C917.282 277.693 917.463 276.899 917.826 276.216C918.188 275.533 918.695 275.011 919.346 274.648C920.007 274.275 920.764 274.088 921.618 274.088C922.45 274.088 923.186 274.269 923.826 274.632C924.466 274.995 924.956 275.496 925.298 276.136C925.65 276.765 925.826 277.48 925.826 278.28ZM924.322 277.976C924.322 277.421 924.199 276.947 923.954 276.552C923.708 276.147 923.372 275.843 922.946 275.64C922.53 275.427 922.066 275.32 921.554 275.32C920.818 275.32 920.188 275.555 919.666 276.024C919.154 276.493 918.86 277.144 918.786 277.976H924.322ZM930.852 283.144C930.18 283.144 929.577 283.032 929.044 282.808C928.51 282.573 928.089 282.253 927.78 281.848C927.47 281.432 927.3 280.957 927.268 280.424H928.772C928.814 280.861 929.017 281.219 929.38 281.496C929.753 281.773 930.238 281.912 930.836 281.912C931.39 281.912 931.828 281.789 932.148 281.544C932.468 281.299 932.628 280.989 932.628 280.616C932.628 280.232 932.457 279.949 932.116 279.768C931.774 279.576 931.246 279.389 930.532 279.208C929.881 279.037 929.348 278.867 928.932 278.696C928.526 278.515 928.174 278.253 927.876 277.912C927.588 277.56 927.444 277.101 927.444 276.536C927.444 276.088 927.577 275.677 927.844 275.304C928.11 274.931 928.489 274.637 928.98 274.424C929.47 274.2 930.03 274.088 930.66 274.088C931.63 274.088 932.414 274.333 933.012 274.824C933.609 275.315 933.929 275.987 933.972 276.84H932.516C932.484 276.381 932.297 276.013 931.956 275.736C931.625 275.459 931.177 275.32 930.612 275.32C930.089 275.32 929.673 275.432 929.364 275.656C929.054 275.88 928.9 276.173 928.9 276.536C928.9 276.824 928.99 277.064 929.172 277.256C929.364 277.437 929.598 277.587 929.876 277.704C930.164 277.811 930.558 277.933 931.06 278.072C931.689 278.243 932.201 278.413 932.596 278.584C932.99 278.744 933.326 278.989 933.604 279.32C933.892 279.651 934.041 280.083 934.052 280.616C934.052 281.096 933.918 281.528 933.652 281.912C933.385 282.296 933.006 282.6 932.516 282.824C932.036 283.037 931.481 283.144 930.852 283.144Z" fill="black"/>
<g clip-path="url(#clip4_142_1509)">
<path d="M873.333 223.333H871C868.423 223.333 866.333 225.423 866.333 228V235C866.333 237.577 868.423 239.667 871 239.667H873.333C875.911 239.667 878 237.577 878 235V228C878 225.423 875.911 223.333 873.333 223.333Z" stroke="black" stroke-width="2" stroke-linecap="round" stroke-linejoin="round"/>
<path d="M899 223.333H896.667C894.089 223.333 892 225.423 892 228V235C892 237.577 894.089 239.667 896.667 239.667H899C901.577 239.667 903.667 237.577 903.667 235V228C903.667 225.423 901.577 223.333 899 223.333Z" stroke="black" stroke-width="2" stroke-linecap="round" stroke-linejoin="round"/>
<path d="M866.333 228V221C866.333 216.049 868.3 211.301 871.801 207.801C875.301 204.3 880.049 202.333 885 202.333C889.951 202.333 894.699 204.3 898.199 207.801C901.7 211.301 903.667 216.049 903.667 221V228" stroke="black" stroke-width="2" stroke-linecap="round" stroke-linejoin="round"/>
</g>
<rect x="1000.5" y="168.5" width="169" height="144" rx="3.5" stroke="black" stroke-opacity="0.3"/>
<path d="M1062.68 275.08C1062.37 274.429 1061.92 273.928 1061.34 273.576C1060.75 273.213 1060.07 273.032 1059.29 273.032C1058.51 273.032 1057.81 273.213 1057.18 273.576C1056.56 273.928 1056.07 274.44 1055.7 275.112C1055.35 275.773 1055.18 276.541 1055.18 277.416C1055.18 278.291 1055.35 279.059 1055.7 279.72C1056.07 280.381 1056.56 280.893 1057.18 281.256C1057.81 281.608 1058.51 281.784 1059.29 281.784C1060.38 281.784 1061.27 281.459 1061.98 280.808C1062.68 280.157 1063.09 279.277 1063.21 278.168H1058.76V276.984H1064.76V278.104C1064.67 279.021 1064.39 279.864 1063.9 280.632C1063.41 281.389 1062.76 281.992 1061.96 282.44C1061.16 282.877 1060.27 283.096 1059.29 283.096C1058.25 283.096 1057.31 282.856 1056.46 282.376C1055.6 281.885 1054.93 281.208 1054.42 280.344C1053.93 279.48 1053.69 278.504 1053.69 277.416C1053.69 276.328 1053.93 275.352 1054.42 274.488C1054.93 273.613 1055.6 272.936 1056.46 272.456C1057.31 271.965 1058.25 271.72 1059.29 271.72C1060.47 271.72 1061.52 272.013 1062.42 272.6C1063.34 273.187 1064.01 274.013 1064.42 275.08H1062.68ZM1066.14 278.584C1066.14 277.688 1066.32 276.904 1066.69 276.232C1067.05 275.549 1067.54 275.021 1068.17 274.648C1068.81 274.275 1069.52 274.088 1070.3 274.088C1071.07 274.088 1071.74 274.253 1072.3 274.584C1072.87 274.915 1073.29 275.331 1073.57 275.832V274.232H1075.04V283H1073.57V281.368C1073.28 281.88 1072.85 282.307 1072.27 282.648C1071.7 282.979 1071.04 283.144 1070.29 283.144C1069.51 283.144 1068.8 282.952 1068.17 282.568C1067.54 282.184 1067.05 281.645 1066.69 280.952C1066.32 280.259 1066.14 279.469 1066.14 278.584ZM1073.57 278.6C1073.57 277.939 1073.43 277.363 1073.17 276.872C1072.9 276.381 1072.54 276.008 1072.08 275.752C1071.63 275.485 1071.13 275.352 1070.59 275.352C1070.05 275.352 1069.55 275.48 1069.1 275.736C1068.65 275.992 1068.3 276.365 1068.03 276.856C1067.76 277.347 1067.63 277.923 1067.63 278.584C1067.63 279.256 1067.76 279.843 1068.03 280.344C1068.3 280.835 1068.65 281.213 1069.1 281.48C1069.55 281.736 1070.05 281.864 1070.59 281.864C1071.13 281.864 1071.63 281.736 1072.08 281.48C1072.54 281.213 1072.9 280.835 1073.17 280.344C1073.43 279.843 1073.57 279.261 1073.57 278.6ZM1088.04 274.072C1088.72 274.072 1089.33 274.216 1089.87 274.504C1090.4 274.781 1090.82 275.203 1091.13 275.768C1091.44 276.333 1091.59 277.021 1091.59 277.832V283H1090.15V278.04C1090.15 277.165 1089.93 276.499 1089.5 276.04C1089.07 275.571 1088.49 275.336 1087.75 275.336C1087 275.336 1086.39 275.581 1085.95 276.072C1085.5 276.552 1085.27 277.251 1085.27 278.168V283H1083.83V278.04C1083.83 277.165 1083.61 276.499 1083.18 276.04C1082.75 275.571 1082.17 275.336 1081.43 275.336C1080.68 275.336 1080.07 275.581 1079.63 276.072C1079.18 276.552 1078.95 277.251 1078.95 278.168V283H1077.5V274.232H1078.95V275.496C1079.24 275.037 1079.63 274.685 1080.11 274.44C1080.6 274.195 1081.13 274.072 1081.72 274.072C1082.46 274.072 1083.11 274.237 1083.67 274.568C1084.24 274.899 1084.66 275.384 1084.94 276.024C1085.18 275.405 1085.59 274.925 1086.15 274.584C1086.72 274.243 1087.35 274.072 1088.04 274.072ZM1094.73 272.808C1094.46 272.808 1094.22 272.712 1094.03 272.52C1093.84 272.328 1093.74 272.093 1093.74 271.816C1093.74 271.539 1093.84 271.304 1094.03 271.112C1094.22 270.92 1094.46 270.824 1094.73 270.824C1095 270.824 1095.22 270.92 1095.41 271.112C1095.6 271.304 1095.69 271.539 1095.69 271.816C1095.69 272.093 1095.6 272.328 1095.41 272.52C1095.22 272.712 1095 272.808 1094.73 272.808ZM1095.44 274.232V283H1093.98V274.232H1095.44ZM1102.19 274.072C1103.26 274.072 1104.12 274.397 1104.78 275.048C1105.44 275.688 1105.78 276.616 1105.78 277.832V283H1104.34V278.04C1104.34 277.165 1104.12 276.499 1103.68 276.04C1103.24 275.571 1102.64 275.336 1101.89 275.336C1101.12 275.336 1100.51 275.576 1100.05 276.056C1099.6 276.536 1099.38 277.235 1099.38 278.152V283H1097.92V274.232H1099.38V275.48C1099.66 275.032 1100.05 274.685 1100.54 274.44C1101.04 274.195 1101.59 274.072 1102.19 274.072ZM1111.77 274.088C1112.53 274.088 1113.19 274.253 1113.75 274.584C1114.33 274.915 1114.76 275.331 1115.03 275.832V274.232H1116.51V283.192C1116.51 283.992 1116.34 284.701 1115.99 285.32C1115.65 285.949 1115.16 286.44 1114.52 286.792C1113.89 287.144 1113.16 287.32 1112.31 287.32C1111.16 287.32 1110.2 287.048 1109.43 286.504C1108.67 285.96 1108.21 285.219 1108.07 284.28H1109.51C1109.67 284.813 1110 285.24 1110.51 285.56C1111.01 285.891 1111.61 286.056 1112.31 286.056C1113.11 286.056 1113.76 285.805 1114.27 285.304C1114.78 284.803 1115.03 284.099 1115.03 283.192V281.352C1114.75 281.864 1114.32 282.291 1113.75 282.632C1113.19 282.973 1112.53 283.144 1111.77 283.144C1110.99 283.144 1110.28 282.952 1109.64 282.568C1109.01 282.184 1108.52 281.645 1108.15 280.952C1107.79 280.259 1107.61 279.469 1107.61 278.584C1107.61 277.688 1107.79 276.904 1108.15 276.232C1108.52 275.549 1109.01 275.021 1109.64 274.648C1110.28 274.275 1110.99 274.088 1111.77 274.088ZM1115.03 278.6C1115.03 277.939 1114.9 277.363 1114.63 276.872C1114.37 276.381 1114 276.008 1113.55 275.752C1113.1 275.485 1112.6 275.352 1112.06 275.352C1111.51 275.352 1111.02 275.48 1110.57 275.736C1110.12 275.992 1109.76 276.365 1109.5 276.856C1109.23 277.347 1109.1 277.923 1109.1 278.584C1109.1 279.256 1109.23 279.843 1109.5 280.344C1109.76 280.835 1110.12 281.213 1110.57 281.48C1111.02 281.736 1111.51 281.864 1112.06 281.864C1112.6 281.864 1113.1 281.736 1113.55 281.48C1114 281.213 1114.37 280.835 1114.63 280.344C1114.9 279.843 1115.03 279.261 1115.03 278.6Z" fill="black"/>
<g clip-path="url(#clip5_142_1509)">
<path d="M1103.67 207H1066.33C1063.76 207 1061.67 209.089 1061.67 211.667V230.333C1061.67 232.911 1063.76 235 1066.33 235H1103.67C1106.24 235 1108.33 232.911 1108.33 230.333V211.667C1108.33 209.089 1106.24 207 1103.67 207Z" stroke="black" stroke-width="2" stroke-linecap="round" stroke-linejoin="round"/>
<path d="M1071 221H1080.33M1075.67 216.333V225.667" stroke="black" stroke-width="2" stroke-linecap="round" stroke-linejoin="round"/>
<path d="M1092 218.667V218.691" stroke="black" stroke-width="3" stroke-linecap="round" stroke-linejoin="round"/>
<path d="M1099 223.333V223.357" stroke="black" stroke-width="3" stroke-linecap="round" stroke-linejoin="round"/>
</g>
<defs>
<filter id="filter0_d_142_1509" x="587" y="156" width="196" height="171" filterUnits="userSpaceOnUse" color-interpolation-filters="sRGB">
<feFlood flood-opacity="0" result="BackgroundImageFix"/>
<feColorMatrix in="SourceAlpha" type="matrix" values="0 0 0 0 0 0 0 0 0 0 0 0 0 0 0 0 0 0 127 0" result="hardAlpha"/>
<feOffset dy="1"/>
<feGaussianBlur stdDeviation="6.5"/>
<feComposite in2="hardAlpha" operator="out"/>
<feColorMatrix type="matrix" values="0 0 0 0 0 0 0 0 0 0 0 0 0 0 0 0 0 0 0.05 0"/>
<feBlend mode="normal" in2="BackgroundImageFix" result="effect1_dropShadow_142_1509"/>
<feBlend mode="normal" in="SourceGraphic" in2="effect1_dropShadow_142_1509" result="shape"/>
</filter>
<clipPath id="clip0_142_1509">
<rect width="56" height="56" fill="white" transform="translate(57 193)"/>
</clipPath>
<clipPath id="clip1_142_1509">
<rect width="56" height="56" fill="white" transform="translate(258 193)"/>
</clipPath>
<clipPath id="clip2_142_1509">
<rect width="56" height="56" fill="white" transform="translate(457 193)"/>
</clipPath>
<clipPath id="clip3_142_1509">
<rect width="56" height="56" fill="white" transform="translate(657 193)"/>
</clipPath>
<clipPath id="clip4_142_1509">
<rect width="56" height="56" fill="white" transform="translate(857 193)"/>
</clipPath>
<clipPath id="clip5_142_1509">
<rect width="56" height="56" fill="white" transform="translate(1057 193)"/>
</clipPath>
</defs>
</svg>
